<svg width="33" height="33" viewBox="0 0 33 33" fill="none" xmlns="http://www.w3.org/2000/svg">
    <rect x="1.32422" y="1.50012" width="30" height="30" rx="7" fill="white"/>
    <rect x="1.32422" y="1.50012" width="30" height="30" rx="7" stroke="#5076FE" stroke-width="2"/>
    <path d="M26.3242 20.5001H20.3242V18.5001H26.3242V20.5001ZM30.3242 28.5001H24.3242V26.5001H30.3242V28.5001ZM28.3242 24.5001H22.3242V22.5001H28.3242V24.5001Z" fill="#F8FBFF"/>
    <path d="M19.3271 18.546C19.3201 17.9344 19.095 17.3346 18.6738 16.8047C18.2526 16.2747 17.6495 15.8327 16.9231 15.5215L24.3241 6.22489L22.5941 5.50012L15.0171 15.0135C14.0872 14.8629 13.1201 14.8837 12.2041 15.074C11.2882 15.2643 10.4527 15.618 9.77411 16.1028C6.03011 18.7199 6.32011 24.8385 6.33411 25.0979C6.34445 25.2851 6.45435 25.4621 6.64078 25.5918C6.82721 25.7215 7.07568 25.7938 7.33411 25.7937H22.3251C22.535 25.7937 22.7396 25.7458 22.9098 25.6569C23.0801 25.568 23.2074 25.4424 23.2738 25.2981C23.3402 25.1538 23.3422 24.998 23.2796 24.8528C23.217 24.7076 23.093 24.5804 22.9251 24.4891C19.3851 22.5641 19.3271 18.5851 19.3271 18.546ZM14.2541 16.3695C15.0545 16.3759 15.8207 16.6057 16.3932 17.0111C16.9658 17.4164 17.3006 17.9662 17.3281 18.546C17.3281 18.5735 17.3301 18.6967 17.3451 18.8859L11.4451 16.9841C11.8338 16.7518 12.2822 16.5779 12.7645 16.4724C13.2467 16.3669 13.7531 16.3319 14.2541 16.3695ZM17.7741 24.3442C16.9748 23.7543 16.4653 22.9903 16.3241 22.1698H14.3241C14.3957 22.9412 14.7282 23.6879 15.2921 24.3442H13.0691C12.6579 23.4036 12.4077 22.4299 12.3241 21.4451H10.3241C10.3886 22.427 10.6118 23.4 10.9891 24.3442H8.32411C8.35511 23.0135 8.61411 20.0738 10.1271 18.1452L17.6601 20.5732C18.022 21.9352 18.7937 23.2228 19.9201 24.3442H17.7741Z" fill="#5076FE"/>
</svg>
