<svg width="30" height="15" viewBox="0 0 30 15" fill="none" xmlns="http://www.w3.org/2000/svg">
    <path d="M7.41406 1.54102L2.70703 14.5H0.783203L6.20312 0.28125H7.44336L7.41406 1.54102ZM11.3594 14.5L6.64258 1.54102L6.61328 0.28125H7.85352L13.293 14.5H11.3594ZM11.1152 9.23633V10.7793H3.12695V9.23633H11.1152ZM18.2836 7.71289V9.19727H13.518V7.71289H18.2836ZM24.993 7.84961H21.3895L21.3699 6.33594H24.6414C25.1818 6.33594 25.6538 6.24479 26.0574 6.0625C26.4611 5.88021 26.7736 5.61979 26.9949 5.28125C27.2228 4.9362 27.3367 4.52604 27.3367 4.05078C27.3367 3.52995 27.2358 3.10677 27.034 2.78125C26.8387 2.44922 26.5359 2.20833 26.1258 2.05859C25.7221 1.90234 25.2078 1.82422 24.5828 1.82422H21.8094V14.5H19.9246V0.28125H24.5828C25.312 0.28125 25.963 0.35612 26.5359 0.505859C27.1089 0.649089 27.5939 0.876953 27.991 1.18945C28.3947 1.49544 28.7007 1.88607 28.909 2.36133C29.1173 2.83659 29.2215 3.40625 29.2215 4.07031C29.2215 4.65625 29.0717 5.18685 28.7723 5.66211C28.4728 6.13086 28.0561 6.51497 27.5223 6.81445C26.9949 7.11393 26.3764 7.30599 25.6668 7.39062L24.993 7.84961ZM24.9051 14.5H20.6473L21.7117 12.9668H24.9051C25.504 12.9668 26.0118 12.8626 26.4285 12.6543C26.8517 12.446 27.174 12.153 27.3953 11.7754C27.6167 11.3913 27.7273 10.9388 27.7273 10.418C27.7273 9.89062 27.6329 9.4349 27.4441 9.05078C27.2553 8.66667 26.9591 8.37044 26.5555 8.16211C26.1518 7.95378 25.631 7.84961 24.993 7.84961H22.3074L22.327 6.33594H25.9988L26.3992 6.88281C27.0828 6.94141 27.6622 7.13672 28.1375 7.46875C28.6128 7.79427 28.9741 8.21094 29.2215 8.71875C29.4754 9.22656 29.6023 9.78646 29.6023 10.3984C29.6023 11.2839 29.407 12.0326 29.0164 12.6445C28.6323 13.25 28.0887 13.7122 27.3855 14.0312C26.6824 14.3438 25.8556 14.5 24.9051 14.5Z" fill="#5A6078"/>
</svg>
