<svg width="20" height="20" viewBox="0 0 20 20" fill="none" xmlns="http://www.w3.org/2000/svg">
    <path d="M15.4379 3.55963C15.4379 4.6642 14.4865 5.55963 13.313 5.55963C12.1394 5.55963 11.188 4.6642 11.188 3.55963C11.188 2.45506 12.1394 1.55963 13.313 1.55963C14.4865 1.55963 15.4379 2.45506 15.4379 3.55963Z" fill="#D9D9D9"/>
    <path d="M8.68895 16.4404C8.68895 17.5449 7.73759 18.4404 6.56402 18.4404C5.39046 18.4404 4.4391 17.5449 4.4391 16.4404C4.4391 15.3358 5.39046 14.4404 6.56402 14.4404C7.73759 14.4404 8.68895 15.3358 8.68895 16.4404Z" fill="#D9D9D9"/>
    <path d="M1.90576 3.55963H17.8427M1.90576 9.91177H17.8427M2.15711 16.4404H18.0941M15.4379 3.55963C15.4379 4.6642 14.4865 5.55963 13.313 5.55963C12.1394 5.55963 11.188 4.6642 11.188 3.55963C11.188 2.45506 12.1394 1.55963 13.313 1.55963C14.4865 1.55963 15.4379 2.45506 15.4379 3.55963ZM8.68895 16.4404C8.68895 17.5449 7.73759 18.4404 6.56402 18.4404C5.39046 18.4404 4.4391 17.5449 4.4391 16.4404C4.4391 15.3358 5.39046 14.4404 6.56402 14.4404C7.73759 14.4404 8.68895 15.3358 8.68895 16.4404Z" stroke="#5A6078" stroke-width="2" stroke-linecap="round" stroke-linejoin="round"/>
</svg>
