<svg width="41" height="41" viewBox="0 0 41 41" fill="none" xmlns="http://www.w3.org/2000/svg">
    <path d="M35.9561 12.0935V32.2692C35.9561 33.1939 35.6266 33.9858 34.9675 34.6449C34.3084 35.3039 33.5171 35.6329 32.5935 35.6318H9.05524C8.13052 35.6318 7.33863 35.3022 6.67956 34.6432C6.02048 33.9841 5.69151 33.1928 5.69263 32.2692V8.7309C5.69263 7.80618 6.02217 7.01429 6.68124 6.35521C7.34031 5.69614 8.13164 5.36717 9.05524 5.36829H29.2309L35.9561 12.0935ZM20.8244 30.5879C22.2255 30.5879 23.4164 30.0975 24.3971 29.1167C25.3779 28.136 25.8683 26.945 25.8683 25.5439C25.8683 24.1429 25.3779 22.9519 24.3971 21.9712C23.4164 20.9904 22.2255 20.5 20.8244 20.5C19.4233 20.5 18.2324 20.9904 17.2516 21.9712C16.2708 22.9519 15.7805 24.1429 15.7805 25.5439C15.7805 26.945 16.2708 28.136 17.2516 29.1167C18.2324 30.0975 19.4233 30.5879 20.8244 30.5879ZM10.7365 17.1374H25.8683V10.4122H10.7365V17.1374Z" fill="#5076FE"/>
</svg>
