<svg width="36" height="36" viewBox="0 0 36 36" fill="none" xmlns="http://www.w3.org/2000/svg">
<path d="M18 3.25201C11.3835 3.25201 6 8.53198 6 15.0139C5.9565 24.4955 17.544 32.3573 18 32.6751C18 32.6751 30.0435 24.4955 30 15.0212C30 8.53199 24.6165 3.25201 18 3.25201Z" fill="#5076FE"/>
<path d="M21.7558 13.0655H22.7942V12.027H21.7558V13.0655ZM21.7558 16.0251H22.7942V14.9866H21.7558V16.0251ZM21.7558 18.9674H22.7942V17.9289H21.7558V18.9674ZM20.7865 21.7712V20.7328H24.5769V10.3482H17.7404V12.2866L16.7019 11.5597V9.30969H25.6154V21.7712H20.7865ZM10.3846 21.7712V15.0212L15.075 11.6635L19.7481 15.0212V21.7712H15.9923V18.2924H14.1577V21.7712H10.3846ZM11.4231 20.7328H13.1192V17.2539H17.0308V20.7328H18.7096V15.5578L15.075 12.9443L11.4231 15.5651V20.7328Z" fill="#FEFEFE"/>
</svg>
