<svg width="20" height="20" viewBox="0 0 20 20" fill="none" xmlns="http://www.w3.org/2000/svg">
<mask id="path-1-outside-1_84_955" maskUnits="userSpaceOnUse" x="2.44727" y="0.602417" width="15" height="18" fill="black">
<rect fill="white" x="2.44727" y="0.602417" width="15" height="18"/>
<path d="M15.5529 8.19108C15.5332 11.2578 13.0311 13.7278 9.96437 13.7081C6.89766 13.6883 4.42762 11.1862 4.44738 8.11952C4.46715 5.05281 6.96922 2.58277 10.0359 2.60253C13.1026 2.6223 15.5727 5.12438 15.5529 8.19108Z"/>
</mask>
<path d="M4.42587 17.0692C4.24458 17.4107 4.37443 17.8344 4.71589 18.0157C5.05735 18.197 5.48112 18.0672 5.66241 17.7257L4.42587 17.0692ZM6.96221 12.2918L4.42587 17.0692L5.66241 17.7257L8.19875 12.9483L6.96221 12.2918ZM14.1529 8.18206C14.1382 10.4756 12.2669 12.3229 9.97339 12.3081L9.95535 15.108C13.7952 15.1328 16.9281 12.04 16.9529 8.20011L14.1529 8.18206ZM9.97339 12.3081C7.67986 12.2933 5.83257 10.4221 5.84735 8.12854L3.04741 8.1105C3.02267 11.9504 6.11545 15.0833 9.95535 15.108L9.97339 12.3081ZM5.84735 8.12854C5.86213 5.83501 7.73339 3.98773 10.0269 4.00251L10.045 1.20256C6.20506 1.17782 3.07216 4.27061 3.04741 8.1105L5.84735 8.12854ZM10.0269 4.00251C12.3204 4.01729 14.1677 5.88854 14.1529 8.18206L16.9529 8.20011C16.9776 4.36022 13.8848 1.22731 10.045 1.20256L10.0269 4.00251Z" fill="#64687B" mask="url(#path-1-outside-1_84_955)"/>
</svg>
