<svg width="36" height="37" viewBox="0 0 36 37" fill="none" xmlns="http://www.w3.org/2000/svg">
<path d="M18 3.78851C11.3835 3.78851 6 9.06848 6 15.5504C5.9565 25.032 17.544 32.8938 18 33.2116C18 33.2116 30.0435 25.032 30 15.5577C30 9.06848 24.6165 3.78851 18 3.78851Z" fill="#5076FE"/>
<path d="M17.1947 13.4421L17.1505 13.3888C16.8956 13.6008 16.765 13.8657 16.765 14.1801V17.6153C16.765 17.9301 16.9017 18.1992 17.1662 18.4196C17.4303 18.6398 17.7469 18.7492 18.1121 18.7493C18.1123 18.7493 18.1124 18.7493 18.1126 18.7493L21.6735 18.7887H21.6742C21.7911 18.7887 21.8747 18.8171 21.9329 18.866C21.9898 18.9138 22.0195 18.9778 22.0195 19.0657V22.2074V22.279L22.091 22.2766L23.2581 22.2371L23.3249 22.2348V22.1679V18.813C23.3249 18.4981 23.1883 18.2291 22.9238 18.0086C22.6595 17.7884 22.3428 17.679 21.9774 17.679H19.2674V14.8461C19.8997 15.391 20.524 15.8054 21.1404 16.088C21.7947 16.3885 22.5299 16.5741 23.3452 16.6458L23.4205 16.6524V16.5768V15.8845V15.8224L23.3587 15.8157C22.6082 15.7338 21.9537 15.5551 21.3941 15.281C20.8355 15.0069 20.1716 14.4972 19.4018 13.7469L19.4015 13.7467C19.133 13.488 18.8962 13.3085 18.6915 13.2138C18.489 13.12 18.285 13.0724 18.0802 13.0724C17.7155 13.0724 17.4041 13.1769 17.1503 13.3889L17.1947 13.4421ZM17.1947 13.4421C16.9544 13.6419 16.8342 13.8879 16.8342 14.1801V17.6153C16.8342 17.907 16.9597 18.1574 17.2105 18.3664C17.4614 18.5755 17.762 18.6801 18.1126 18.6801L21.6742 18.7195C21.8021 18.7195 21.9032 18.7507 21.9774 18.813C22.0516 18.8753 22.0887 18.9595 22.0887 19.0657V22.1381L23.3512 15.8845C22.5943 15.8019 21.9317 15.6214 21.3636 15.3431C20.7954 15.0644 20.1254 14.5488 19.3535 13.7965C19.0871 13.5399 18.8568 13.3666 18.6624 13.2766C18.4681 13.1866 18.274 13.1416 18.0802 13.1416C17.7296 13.1416 17.4345 13.2417 17.1947 13.4421ZM17.0458 10.2402L17.0457 10.2403C16.7554 10.4827 16.6055 10.7761 16.6055 11.118C16.6055 11.4603 16.7557 11.7538 17.0466 11.9957L17.0909 11.9425L17.0465 11.9957C17.3371 12.2384 17.6829 12.3593 18.0802 12.3593C18.478 12.3593 18.824 12.2379 19.1146 11.9957L19.1146 11.9957C19.4049 11.7532 19.5548 11.4598 19.5548 11.118C19.5548 10.7761 19.4049 10.4825 19.1147 10.2397L19.1145 10.2395C18.8233 9.99777 18.4774 9.87736 18.0802 9.87736C17.6829 9.87736 17.3369 9.99803 17.0458 10.2402ZM13.5462 16.897L13.5462 16.897C12.9035 17.4907 12.5795 18.2015 12.5795 19.0262C12.5795 19.9093 12.9616 20.6666 13.7167 21.2955C14.4704 21.9237 15.3723 22.2371 16.4189 22.2371C17.3966 22.2371 18.2477 21.9663 18.969 21.4229L18.9691 21.4229C19.6904 20.879 20.1098 20.1981 20.2211 19.3817L20.2318 19.3031H20.1525H19.312H19.2541L19.2438 19.3601C19.1393 19.9402 18.8287 20.4258 18.3069 20.8179L18.3068 20.818C17.7865 21.2093 17.1584 21.4064 16.4189 21.4064C15.6126 21.4064 14.9339 21.1737 14.3784 20.7107C13.8229 20.2472 13.5486 19.6868 13.5486 19.0262C13.5486 18.4188 13.7807 17.9006 14.249 17.4681C14.719 17.034 15.3055 16.7715 16.0115 16.6822L16.072 16.6745V16.6135V15.9136V15.8363L15.9952 15.8448C15.0065 15.9542 14.1888 16.304 13.5462 16.897Z" fill="#FEFEFE" stroke="#FEFEFE" stroke-width="0.138462"/>
</svg>
